<svg width="199" height="192" viewBox="0 0 199 192" fill="none" xmlns="http://www.w3.org/2000/svg">
<path d="M49.2259 11C20.3964 27.677 1 58.8475 1 94.5482C1 147.817 44.1829 191 97.4518 191C133.153 191 164.323 171.604 181 142.774" stroke="#023848"/>
<path d="M62.775 106.2C60.425 106.2 58.35 105.625 56.55 104.475C54.8 103.325 53.925 101.825 53.925 99.975C53.925 98.825 54.25 97.775 54.9 96.825C55.55 95.875 56.525 95.375 57.825 95.325C59.275 95.225 60.3 95.6 60.9 96.45C61.5 97.3 61.8 98.2 61.8 99.15C61.85 99.85 61.7 100.525 61.35 101.175C61.65 101.625 62.1 101.95 62.7 102.15C63.3 102.3 63.775 102.375 64.125 102.375C65.475 102.325 66.475 101.725 67.125 100.575C67.825 99.375 68.175 97.4 68.175 94.65V63.075C68.175 61.875 68.175 60.7 68.175 59.55C68.175 58.4 68.2 57.325 68.25 56.325C67.15 56.375 65.95 56.425 64.65 56.475C63.4 56.525 62.275 56.575 61.275 56.625V52.5H81.75V55.8C79.55 55.8 78.05 56.4 77.25 57.6C76.5 58.75 76.125 60.525 76.125 62.925V86.475C76.125 93.575 75.05 98.65 72.9 101.7C70.75 104.7 67.375 106.2 62.775 106.2ZM87.9311 105V101.7C89.5811 101.65 90.7561 101.325 91.4561 100.725C92.2061 100.075 92.6811 99.15 92.8811 97.95C93.0811 96.75 93.1811 95.225 93.1811 93.375V62.175C93.1811 59.875 93.2561 57.925 93.4061 56.325C92.5561 56.375 91.6311 56.425 90.6311 56.475C89.6311 56.525 88.7311 56.575 87.9311 56.625V52.5H106.381V55.8C104.781 55.85 103.606 56.2 102.856 56.85C102.106 57.45 101.631 58.35 101.431 59.55C101.231 60.75 101.131 62.275 101.131 64.125V76.125H106.681L114.856 63C115.606 61.85 116.456 60.625 117.406 59.325C118.356 58.025 119.256 57 120.106 56.25C119.356 56.3 118.556 56.35 117.706 56.4C116.906 56.4 116.181 56.425 115.531 56.475V52.5H132.406V55.8C130.606 55.95 128.931 56.275 127.381 56.775C125.881 57.225 124.406 58.1 122.956 59.4C121.506 60.65 119.981 62.55 118.381 65.1L111.106 76.725C112.406 77.525 113.481 78.425 114.331 79.425C115.181 80.425 116.006 81.45 116.806 82.5L124.981 93.525C126.581 95.725 127.981 97.4 129.181 98.55C130.381 99.7 131.481 100.525 132.481 101.025C133.481 101.475 134.531 101.7 135.631 101.7V105H125.656C125.206 105 124.556 104.625 123.706 103.875C122.856 103.125 121.931 102.175 120.931 101.025C119.981 99.875 119.056 98.725 118.156 97.575L109.681 85.875C108.831 84.725 107.956 83.6 107.056 82.5C106.206 81.4 105.356 80.6 104.506 80.1H101.131V94.95C101.131 97.65 101.056 99.725 100.906 101.175C101.756 101.125 102.681 101.075 103.681 101.025C104.681 100.925 105.581 100.875 106.381 100.875V105H87.9311Z" fill="#023848"/>
<path d="M65.6764 5.89148C66.0298 6.03148 66.3164 6.24482 66.5364 6.53148C66.7631 6.81815 66.8764 7.18815 66.8764 7.64148C66.8764 8.43482 66.6498 8.98815 66.1964 9.30148C65.7431 9.61482 65.2031 9.77148 64.5764 9.77148H62.0864C61.9131 9.77148 61.7664 9.71482 61.6464 9.60148C61.5331 9.48148 61.4764 9.33482 61.4764 9.16148V3.38148C61.4764 3.20815 61.5331 3.06482 61.6464 2.95148C61.7664 2.83148 61.9131 2.77148 62.0864 2.77148H64.6064C65.8731 2.77148 66.5064 3.36482 66.5064 4.55148C66.5064 4.85148 66.4331 5.11815 66.2864 5.35148C66.1464 5.57815 65.9431 5.75815 65.6764 5.89148ZM65.2064 4.77148C65.2064 4.49815 65.1364 4.29482 64.9964 4.16148C64.8631 4.02148 64.6731 3.95148 64.4264 3.95148H62.7764V5.51148H64.4564C64.6564 5.51148 64.8298 5.44482 64.9764 5.31148C65.1298 5.17815 65.2064 4.99815 65.2064 4.77148ZM64.5764 8.62148C64.8898 8.62148 65.1331 8.53815 65.3064 8.37148C65.4864 8.20482 65.5764 7.96148 65.5764 7.64148C65.5764 7.24815 65.4731 6.99148 65.2664 6.87148C65.0598 6.75148 64.8064 6.69148 64.5064 6.69148H62.7764V8.62148H64.5764Z" fill="#023848"/>
<path d="M86.1348 5.97574C86.3081 5.9804 86.4498 6.04424 86.5598 6.16725C86.6767 6.28377 86.7331 6.41867 86.729 6.57195C86.7245 6.73855 86.6608 6.87356 86.538 6.97695C86.4219 7.08053 86.2771 7.12999 86.1039 7.12532L82.7551 7.03516C82.5818 7.03049 82.4367 6.9699 82.3198 6.85337C82.2098 6.73037 82.1571 6.58223 82.1617 6.40896L82.3173 0.631052C82.322 0.457782 82.3825 0.316025 82.4988 0.205783C82.622 0.0890567 82.7702 0.033026 82.9435 0.0376914L86.2923 0.127858C86.4655 0.132523 86.6073 0.193028 86.7175 0.30937C86.8346 0.419228 86.8908 0.560792 86.8862 0.734063C86.8817 0.900669 86.8214 1.03576 86.7052 1.13934C86.5892 1.23625 86.4413 1.28229 86.2613 1.27744L83.5523 1.2045L83.5065 2.90389L85.7657 2.96471C85.939 2.96938 86.0808 3.02988 86.191 3.14623C86.3081 3.25608 86.3643 3.39765 86.3596 3.57092C86.3551 3.73752 86.2948 3.87262 86.1787 3.97619C86.0627 4.07311 85.9147 4.11914 85.7348 4.1143L83.4756 4.05347L83.4258 5.9028L86.1348 5.97574Z" fill="#023848"/>
<path d="M105.23 8.557C105.242 8.64896 105.241 8.73066 105.224 8.80208C105.185 8.97092 105.097 9.0977 104.961 9.18243C104.827 9.26067 104.688 9.28319 104.545 9.24998C104.428 9.22281 104.329 9.16219 104.248 9.06813C104.174 8.97557 104.125 8.86156 104.102 8.72611L103.87 7.4298L100.967 6.75513L100.184 7.82572C100.11 7.93854 100.016 8.01934 99.902 8.06813C99.796 8.11193 99.6878 8.121 99.5774 8.09535C99.4086 8.0561 99.2893 7.98046 99.2195 7.86842C99.1562 7.75789 99.1427 7.6247 99.1789 7.46886C99.1925 7.41041 99.2166 7.35099 99.2511 7.29058L103.03 2.02959C103.112 1.91179 103.214 1.82925 103.334 1.78197C103.455 1.73469 103.578 1.73264 103.705 1.77581C103.822 1.80298 103.921 1.8636 104.002 1.95767C104.091 2.04675 104.143 2.15827 104.16 2.29221L105.23 8.557ZM103.653 6.19872L103.199 3.69082L101.705 5.74592L103.653 6.19872Z" fill="#023848"/>
<path d="M124.251 6.22367C124.419 6.26507 124.541 6.35354 124.618 6.48907C124.694 6.6246 124.711 6.77976 124.668 6.95455L123.803 10.4698C123.671 11.0071 123.441 11.455 123.112 11.8136C122.784 12.1722 122.387 12.4179 121.922 12.5506C121.457 12.6833 120.962 12.6852 120.438 12.5562C119.913 12.4272 119.473 12.1953 119.116 11.8603C118.765 11.5269 118.528 11.1252 118.403 10.6552C118.278 10.1851 118.282 9.68142 118.414 9.1441L119.279 5.62889C119.32 5.46057 119.413 5.33572 119.556 5.25433C119.701 5.16646 119.865 5.14483 120.046 5.18941C120.201 5.22763 120.323 5.31933 120.411 5.46452C120.5 5.60324 120.524 5.75675 120.483 5.92507L119.618 9.44029C119.542 9.75103 119.541 10.0461 119.617 10.3256C119.694 10.5985 119.83 10.8276 120.024 11.0128C120.226 11.1996 120.459 11.3257 120.724 11.3909C121.003 11.4594 121.278 11.4584 121.549 11.3878C121.827 11.3189 122.066 11.1821 122.268 10.9776C122.477 10.7683 122.62 10.5082 122.696 10.1975L123.561 6.68225C123.604 6.50746 123.688 6.37698 123.812 6.29082C123.936 6.20465 124.082 6.18227 124.251 6.22367Z" fill="#023848"/>
<path d="M142.16 13.2579C142.321 13.3381 142.429 13.4511 142.483 13.5971C142.537 13.7431 142.525 13.8937 142.448 14.0489C142.371 14.2041 142.258 14.3042 142.109 14.3492C141.963 14.3883 141.809 14.3678 141.648 14.2876L140.242 13.5885L137.909 18.2804C137.832 18.4356 137.71 18.5387 137.543 18.5898C137.379 18.6349 137.213 18.6158 137.046 18.5327C136.879 18.4496 136.767 18.3306 136.71 18.1757C136.656 18.0148 136.668 17.8568 136.745 17.7016L139.078 13.0097L137.672 12.3106C137.511 12.2305 137.404 12.1174 137.35 11.9714C137.296 11.8254 137.307 11.6749 137.384 11.5197C137.459 11.3704 137.57 11.2733 137.719 11.2282C137.874 11.1862 138.029 11.2037 138.184 11.2809L142.16 13.2579Z" fill="#023848"/>
<path d="M157.73 25.422C157.651 25.5298 157.549 25.6079 157.423 25.6563L153.973 26.8425L152.536 28.8147C152.434 28.9548 152.302 29.0399 152.14 29.0702C151.982 29.0951 151.838 29.0604 151.708 28.9662C151.574 28.8681 151.491 28.7379 151.461 28.5756C151.44 28.4119 151.481 28.26 151.583 28.1199L153.102 26.0345L153.046 22.579C153.043 22.379 153.087 22.217 153.177 22.0931C153.279 21.953 153.417 21.8764 153.592 21.8633C153.776 21.8487 153.929 21.8866 154.053 21.9769C154.204 22.0868 154.281 22.2584 154.285 22.4917L154.276 25.4921L157.029 24.5157C157.26 24.4364 157.453 24.4537 157.61 24.5676C157.739 24.6618 157.817 24.7927 157.843 24.9604C157.87 25.128 157.832 25.2819 157.73 25.422Z" fill="#023848"/>
<path d="M172.648 49.0543C172.642 49.1559 172.611 49.2476 172.557 49.3294C172.505 49.4172 172.438 49.4829 172.356 49.5267C172.25 49.583 172.134 49.5993 172.008 49.5755C171.855 49.5435 171.73 49.4362 171.633 49.2537C171.558 49.1124 171.522 48.9656 171.524 48.8135C171.54 48.2613 171.919 47.7883 172.661 47.3943C172.873 47.2818 173.004 47.122 173.052 46.915C173.104 46.7139 173.061 46.4839 172.923 46.2248L172.046 44.5732L170.333 45.4831C170.174 45.5675 170.021 45.5922 169.874 45.557C169.73 45.5277 169.621 45.4424 169.546 45.3011C169.455 45.1304 169.425 44.9536 169.457 44.771C169.497 44.591 169.594 44.4604 169.747 44.3791L174.852 41.6682C175.005 41.5869 175.158 41.5697 175.311 41.6167C175.473 41.6664 175.595 41.7678 175.676 41.9209L177.027 44.4645C177.19 44.7706 177.261 45.1029 177.24 45.4613C177.218 45.8197 177.106 46.155 176.902 46.4672C176.701 46.7852 176.421 47.0397 176.062 47.2304C175.767 47.3867 175.437 47.4604 175.069 47.4516C174.708 47.4395 174.378 47.3507 174.079 47.1851C174.017 47.6936 173.777 48.0812 173.36 48.3479C173.275 48.4156 173.189 48.4729 173.101 48.5198C172.931 48.6403 172.811 48.7342 172.741 48.8015C172.677 48.8657 172.646 48.95 172.648 49.0543ZM173.983 46.0243C174.039 46.1303 174.144 46.2068 174.298 46.2537C174.451 46.3006 174.627 46.3127 174.826 46.2899C175.031 46.264 175.231 46.1995 175.425 46.0963C175.59 46.0088 175.723 45.8966 175.824 45.76C175.931 45.6201 175.999 45.4783 176.029 45.3344C176.058 45.1906 176.044 45.0656 175.988 44.9597L174.961 43.0255L172.956 44.0901L173.983 46.0243Z" fill="#023848"/>
<path d="M182.176 65.9979C182.176 66.6579 182.029 67.2646 181.736 67.8179C181.442 68.3646 181.036 68.7979 180.516 69.1179C180.002 69.4379 179.422 69.5979 178.776 69.5979C178.129 69.5979 177.546 69.4379 177.026 69.1179C176.512 68.7979 176.109 68.3646 175.816 67.8179C175.529 67.2646 175.386 66.6579 175.386 65.9979C175.386 65.3379 175.529 64.7346 175.816 64.1879C176.109 63.6346 176.512 63.1979 177.026 62.8779C177.546 62.5579 178.129 62.3979 178.776 62.3979C179.422 62.3979 180.002 62.5579 180.516 62.8779C181.036 63.1979 181.442 63.6346 181.736 64.1879C182.029 64.7346 182.176 65.3379 182.176 65.9979ZM180.876 65.9979C180.876 65.5513 180.786 65.1479 180.606 64.7879C180.426 64.4213 180.176 64.1313 179.856 63.9179C179.536 63.7046 179.176 63.5979 178.776 63.5979C178.369 63.5979 178.006 63.7046 177.686 63.9179C177.372 64.1246 177.126 64.4113 176.946 64.7779C176.772 65.1446 176.686 65.5513 176.686 65.9979C176.686 66.4446 176.772 66.8513 176.946 67.2179C177.126 67.5846 177.372 67.8746 177.686 68.0879C178.006 68.2946 178.369 68.3979 178.776 68.3979C179.176 68.3979 179.536 68.2913 179.856 68.0779C180.176 67.8646 180.426 67.5779 180.606 67.2179C180.786 66.8513 180.876 66.4446 180.876 65.9979Z" fill="#023848"/>
<path d="M187.369 86.7723C187.369 87.4323 187.223 88.039 186.929 88.5923C186.636 89.139 186.229 89.5723 185.709 89.8923C185.196 90.2123 184.616 90.3723 183.969 90.3723C183.323 90.3723 182.739 90.2123 182.219 89.8923C181.706 89.5723 181.303 89.139 181.009 88.5923C180.723 88.039 180.579 87.4323 180.579 86.7723C180.579 86.1123 180.723 85.509 181.009 84.9623C181.303 84.409 181.706 83.9723 182.219 83.6523C182.739 83.3323 183.323 83.1723 183.969 83.1723C184.616 83.1723 185.196 83.3323 185.709 83.6523C186.229 83.9723 186.636 84.409 186.929 84.9623C187.223 85.509 187.369 86.1123 187.369 86.7723ZM186.069 86.7723C186.069 86.3257 185.979 85.9223 185.799 85.5623C185.619 85.1957 185.369 84.9057 185.049 84.6923C184.729 84.479 184.369 84.3723 183.969 84.3723C183.563 84.3723 183.199 84.479 182.879 84.6923C182.566 84.899 182.319 85.1857 182.139 85.5523C181.966 85.919 181.879 86.3257 181.879 86.7723C181.879 87.219 181.966 87.6257 182.139 87.9923C182.319 88.359 182.566 88.649 182.879 88.8623C183.199 89.069 183.563 89.1723 183.969 89.1723C184.369 89.1723 184.729 89.0657 185.049 88.8523C185.369 88.639 185.619 88.3523 185.799 87.9923C185.979 87.6257 186.069 87.219 186.069 86.7723Z" fill="#023848"/>
<path d="M189.825 104.661C189.832 104.828 189.777 104.973 189.662 105.098C189.554 105.229 189.413 105.298 189.24 105.305L183.454 105.533C183.281 105.539 183.132 105.489 183.008 105.38C182.89 105.271 182.828 105.124 182.82 104.937C182.813 104.751 182.864 104.595 182.972 104.471C183.081 104.353 183.225 104.291 183.405 104.284L187.432 104.125L184.849 102.575C184.766 102.512 184.697 102.438 184.64 102.354C184.59 102.269 184.567 102.18 184.569 102.086C184.559 102 184.576 101.912 184.619 101.824C184.669 101.735 184.733 101.656 184.81 101.586L187.353 99.8347L183.236 99.997C183.056 100.004 182.908 99.9565 182.79 99.8544C182.673 99.7523 182.611 99.6146 182.604 99.4414C182.597 99.2749 182.649 99.1361 182.758 99.0251C182.873 98.9138 183.018 98.8547 183.191 98.8479L188.976 98.6199C189.143 98.6133 189.289 98.6676 189.413 98.7828C189.538 98.9047 189.604 99.0522 189.611 99.2254C189.615 99.3253 189.592 99.4263 189.543 99.5283C189.5 99.6301 189.44 99.7092 189.362 99.7656L186.1 102.076L189.536 104.182C189.618 104.232 189.684 104.3 189.734 104.385C189.791 104.476 189.821 104.568 189.825 104.661Z" fill="#023848"/>
</svg>
