<svg width="104" height="102" viewBox="0 0 104 102" fill="none" xmlns="http://www.w3.org/2000/svg">
<path d="M25.9167 8C11.0215 16.6164 1 32.7212 1 51.1666C1 78.6888 23.3112 101 50.8334 101C69.2788 101 85.3836 90.9785 94 76.0833" stroke="white"/>
<path d="M27.85 68.8C26.2833 68.8 24.9 68.4167 23.7 67.65C22.5333 66.8833 21.95 65.8833 21.95 64.65C21.95 63.8833 22.1667 63.1833 22.6 62.55C23.0333 61.9167 23.6833 61.5833 24.55 61.55C25.5167 61.4833 26.2 61.7333 26.6 62.3C27 62.8667 27.2 63.4667 27.2 64.1C27.2333 64.5667 27.1333 65.0167 26.9 65.45C27.1 65.75 27.4 65.9667 27.8 66.1C28.2 66.2 28.5167 66.25 28.75 66.25C29.65 66.2167 30.3167 65.8167 30.75 65.05C31.2167 64.25 31.45 62.9333 31.45 61.1V40.05C31.45 39.25 31.45 38.4667 31.45 37.7C31.45 36.9333 31.4667 36.2167 31.5 35.55C30.7667 35.5833 29.9667 35.6167 29.1 35.65C28.2667 35.6833 27.5167 35.7167 26.85 35.75V33H40.5V35.2C39.0333 35.2 38.0333 35.6 37.5 36.4C37 37.1667 36.75 38.35 36.75 39.95V55.65C36.75 60.3833 36.0333 63.7667 34.6 65.8C33.1667 67.8 30.9167 68.8 27.85 68.8ZM44.6207 68V65.8C45.7207 65.7667 46.504 65.55 46.9707 65.15C47.4707 64.7167 47.7874 64.1 47.9207 63.3C48.054 62.5 48.1207 61.4833 48.1207 60.25V39.45C48.1207 37.9167 48.1707 36.6167 48.2707 35.55C47.704 35.5833 47.0874 35.6167 46.4207 35.65C45.754 35.6833 45.154 35.7167 44.6207 35.75V33H56.9207V35.2C55.854 35.2333 55.0707 35.4667 54.5707 35.9C54.0707 36.3 53.754 36.9 53.6207 37.7C53.4874 38.5 53.4207 39.5167 53.4207 40.75V48.75H57.1207L62.5707 40C63.0707 39.2333 63.6374 38.4167 64.2707 37.55C64.904 36.6833 65.504 36 66.0707 35.5C65.5707 35.5333 65.0374 35.5667 64.4707 35.6C63.9374 35.6 63.454 35.6167 63.0207 35.65V33H74.2707V35.2C73.0707 35.3 71.954 35.5167 70.9207 35.85C69.9207 36.15 68.9374 36.7333 67.9707 37.6C67.004 38.4333 65.9874 39.7 64.9207 41.4L60.0707 49.15C60.9374 49.6833 61.654 50.2833 62.2207 50.95C62.7874 51.6167 63.3374 52.3 63.8707 53L69.3207 60.35C70.3874 61.8167 71.3207 62.9333 72.1207 63.7C72.9207 64.4667 73.654 65.0167 74.3207 65.35C74.9874 65.65 75.6874 65.8 76.4207 65.8V68H69.7707C69.4707 68 69.0374 67.75 68.4707 67.25C67.904 66.75 67.2874 66.1167 66.6207 65.35C65.9874 64.5833 65.3707 63.8167 64.7707 63.05L59.1207 55.25C58.554 54.4833 57.9707 53.7333 57.3707 53C56.804 52.2667 56.2374 51.7333 55.6707 51.4H53.4207V61.3C53.4207 63.1 53.3707 64.4833 53.2707 65.45C53.8374 65.4167 54.454 65.3833 55.1207 65.35C55.7874 65.2833 56.3874 65.25 56.9207 65.25V68H44.6207Z" fill="white"/>
<path d="M35.878 4.4687C36.198 4.5487 36.4593 4.7087 36.662 4.9487C36.8646 5.1887 36.966 5.5007 36.966 5.8847C36.966 6.40737 36.8033 6.79937 36.478 7.0607C36.158 7.3167 35.758 7.4447 35.278 7.4447H33.126C33.0566 7.4447 32.998 7.42337 32.95 7.3807C32.9073 7.3327 32.886 7.27404 32.886 7.2047V2.0847C32.886 2.01537 32.9073 1.95937 32.95 1.9167C32.998 1.8687 33.0566 1.8447 33.126 1.8447H35.246C35.694 1.8447 36.0433 1.96737 36.294 2.2127C36.55 2.45804 36.678 2.79404 36.678 3.2207C36.678 3.50337 36.6086 3.7567 36.47 3.9807C36.3313 4.2047 36.134 4.36737 35.878 4.4687ZM36.166 3.2607C36.166 2.96737 36.078 2.73804 35.902 2.5727C35.7313 2.40204 35.4913 2.3167 35.182 2.3167H33.398V4.3167H35.182C35.47 4.31137 35.7046 4.21804 35.886 4.0367C36.0726 3.85537 36.166 3.5967 36.166 3.2607ZM35.254 6.9727C35.6113 6.9727 35.8993 6.88204 36.118 6.7007C36.342 6.51937 36.454 6.24737 36.454 5.8847C36.454 5.51137 36.3393 5.2367 36.11 5.0607C35.886 4.8847 35.5953 4.7967 35.238 4.7967H33.398V6.9727H35.254Z" fill="white"/>
<path d="M46.823 5.63281C46.8923 5.63467 46.9476 5.66017 46.989 5.7093C47.0356 5.75858 47.0581 5.8152 47.0564 5.87918C47.0545 5.94849 47.029 6.00382 46.9799 6.04518C46.9361 6.08668 46.8796 6.1065 46.8102 6.10464L43.8753 6.02561C43.806 6.02375 43.7479 6.00084 43.7011 5.9569C43.6597 5.90777 43.64 5.84855 43.6419 5.77924L43.7797 0.661095C43.7815 0.591787 43.8044 0.536381 43.8482 0.494878C43.8974 0.448188 43.9567 0.425776 44.026 0.427642L46.961 0.506665C47.0303 0.508532 47.0856 0.53403 47.127 0.583161C47.1738 0.627104 47.1963 0.68373 47.1944 0.753038C47.1926 0.822347 47.1671 0.87768 47.1179 0.919039C47.0741 0.960542 47.0176 0.980361 46.9483 0.978495L44.2772 0.906576L44.2232 2.91385L46.5344 2.97608C46.6037 2.97794 46.659 3.00344 46.7004 3.05257C46.7472 3.09652 46.7697 3.15314 46.7678 3.22245C46.7659 3.29176 46.7404 3.34709 46.6913 3.38845C46.6475 3.42995 46.591 3.44977 46.5216 3.44791L44.2105 3.38568L44.1519 5.56089L46.823 5.63281Z" fill="white"/>
<path d="M56.7375 7.25138C56.7382 7.29535 56.7362 7.32773 56.7313 7.34851C56.7156 7.41604 56.6796 7.46515 56.6232 7.49584C56.5668 7.52654 56.5074 7.53464 56.445 7.52015C56.3931 7.50807 56.3494 7.48422 56.3138 7.44858C56.2847 7.40896 56.2652 7.36336 56.2553 7.31178L56.0023 5.74995L53.4698 5.16131L52.5617 6.45327C52.496 6.54751 52.4138 6.58316 52.3151 6.56021C52.2424 6.54331 52.1921 6.51245 52.1642 6.46763C52.1363 6.42282 52.127 6.36864 52.1362 6.30509L52.1417 6.28171C52.1489 6.25054 52.157 6.22777 52.1658 6.21339L55.393 1.65774C55.4587 1.5635 55.5487 1.52966 55.663 1.55623C55.7149 1.5683 55.7554 1.59415 55.7846 1.63377C55.8201 1.66941 55.8428 1.71301 55.8527 1.7646L56.7375 7.25138ZM55.9222 5.24674L55.4507 2.32821L53.7559 4.74323L55.9222 5.24674Z" fill="white"/>
<path d="M67.1741 4.09258C67.2414 4.10914 67.29 4.14582 67.32 4.20262C67.3564 4.25552 67.3663 4.31563 67.3498 4.38296L66.5587 7.59909C66.4657 7.97715 66.2897 8.30185 66.0307 8.57318C65.7718 8.84451 65.4646 9.03259 65.1093 9.13742C64.754 9.24225 64.3899 9.2488 64.017 9.15708C63.6389 9.06408 63.3168 8.88874 63.0507 8.63104C62.7845 8.37334 62.5997 8.06424 62.4961 7.70374C62.3925 7.34323 62.3873 6.97395 62.4803 6.59589L63.2714 3.37975C63.2879 3.31243 63.322 3.26314 63.3736 3.2319C63.4317 3.19676 63.4996 3.18874 63.5773 3.20785C63.6394 3.22314 63.6881 3.25982 63.7232 3.31789C63.7596 3.37079 63.7696 3.4309 63.753 3.49823L62.9619 6.71436C62.8906 7.00438 62.8949 7.2883 62.9748 7.5661C63.0548 7.84391 63.196 8.08462 63.3986 8.28823C63.6076 8.48793 63.852 8.62218 64.1316 8.69097C64.4165 8.76104 64.6952 8.75546 64.9678 8.67422C65.2469 8.58909 65.4863 8.44201 65.686 8.23299C65.8909 8.02525 66.029 7.77637 66.1003 7.48635L66.8914 4.27022C66.908 4.20289 66.9421 4.15361 66.9937 4.12237C67.0466 4.08595 67.1067 4.07602 67.1741 4.09258Z" fill="white"/>
<path d="M76.4157 8.10116C76.4778 8.13203 76.5184 8.17607 76.5376 8.23327C76.5616 8.29285 76.5582 8.35368 76.5273 8.41576C76.4964 8.47784 76.45 8.5173 76.388 8.53413C76.3332 8.54856 76.2747 8.54033 76.2127 8.50946L74.7299 7.77209L72.5463 12.1631C72.5154 12.2252 72.4678 12.267 72.4034 12.2886C72.3415 12.3055 72.2794 12.2985 72.2174 12.2676C72.1505 12.2343 72.1051 12.1879 72.0811 12.1283C72.0643 12.0664 72.0713 12.0043 72.1022 11.9423L74.2858 7.55124L72.803 6.81387C72.7409 6.78299 72.6979 6.73777 72.6739 6.67819C72.6547 6.62099 72.6605 6.56135 72.6914 6.49927C72.7199 6.44196 72.7628 6.40371 72.82 6.3845C72.8819 6.36767 72.944 6.37469 73.006 6.40557L76.4157 8.10116Z" fill="white"/>
<path d="M84.4184 14.5352C84.3964 14.5654 84.3537 14.5969 84.2901 14.6298L81.4021 15.5645L79.9042 17.6208C79.8633 17.6768 79.8094 17.7101 79.7423 17.7206C79.6784 17.7269 79.6184 17.7096 79.5624 17.6687C79.5064 17.6279 79.4715 17.5761 79.4578 17.5134C79.4516 17.4495 79.4689 17.3895 79.5097 17.3334L81.0029 15.2836L80.9959 12.2498C80.9896 12.1859 81.0054 12.1281 81.043 12.0764C81.0807 12.0246 81.1352 11.9951 81.2066 11.9877C81.278 11.9803 81.3395 11.9954 81.3913 12.0331C81.4602 12.0834 81.4921 12.1528 81.487 12.2414L81.4972 15.0399L84.1317 14.1679C84.2231 14.1421 84.3011 14.1528 84.3657 14.1999C84.4175 14.2376 84.447 14.2921 84.4544 14.3635C84.465 14.4305 84.453 14.4878 84.4184 14.5352Z" fill="white"/>
<path d="M90.343 28.8749C90.3334 28.9706 90.2933 29.0372 90.2226 29.0747C90.1991 29.0872 90.1635 29.0941 90.1158 29.0952C90.0728 29.0939 90.0331 29.0818 89.9968 29.0588C89.9604 29.0358 89.9323 29.0055 89.9122 28.9678C89.8872 28.9207 89.8754 28.8757 89.8767 28.8327C89.882 28.6608 89.9482 28.4898 90.0753 28.3196C90.2023 28.1495 90.4519 27.9656 90.824 27.768C91.1538 27.5929 91.3358 27.3785 91.3701 27.1248C91.4092 26.8685 91.3612 26.6132 91.2261 26.3589L90.3931 24.7903L88.4925 25.7996C88.4312 25.8322 88.3694 25.8408 88.307 25.8257C88.2493 25.808 88.2042 25.7685 88.1717 25.7073C88.1367 25.6414 88.1255 25.5748 88.1382 25.5077C88.1556 25.4381 88.1949 25.387 88.2561 25.3545L92.778 22.9532C92.8393 22.9206 92.8987 22.9132 92.9564 22.9309C93.0213 22.9508 93.07 22.9913 93.1026 23.0526L94.1156 24.9603C94.2582 25.2287 94.3269 25.5002 94.3217 25.7747C94.3212 26.0467 94.251 26.2954 94.111 26.5207C93.9735 26.7507 93.7775 26.9333 93.5232 27.0684C93.2217 27.2285 92.913 27.2897 92.5972 27.2521C92.2885 27.2168 92.0243 27.0944 91.8044 26.8851C91.8344 27.1349 91.7879 27.377 91.6648 27.6114C91.5464 27.8434 91.3519 28.0342 91.0812 28.184C90.7916 28.3438 90.5967 28.4715 90.4965 28.567C90.3987 28.6672 90.3476 28.7699 90.343 28.8749ZM91.6822 26.2797C91.7839 26.437 91.9194 26.5614 92.0886 26.6526C92.2579 26.7439 92.4451 26.7894 92.6503 26.7892C92.8554 26.7889 93.0616 26.7337 93.2689 26.6237C93.5374 26.4811 93.71 26.2717 93.7867 25.9954C93.8707 25.7214 93.8351 25.4383 93.68 25.1463L92.8095 23.5071L90.7817 24.584L91.6822 26.2797Z" fill="white"/>
<path d="M97.4386 35.7787C97.4386 36.3281 97.324 36.8214 97.0946 37.2587C96.8653 37.6961 96.548 38.0401 96.1426 38.2907C95.7373 38.5361 95.276 38.6587 94.7586 38.6587C94.2413 38.6587 93.78 38.5361 93.3746 38.2907C92.9693 38.0401 92.652 37.6961 92.4226 37.2587C92.1933 36.8214 92.0786 36.3281 92.0786 35.7787C92.0786 35.2241 92.1933 34.7281 92.4226 34.2907C92.652 33.8534 92.9693 33.5121 93.3746 33.2667C93.78 33.0214 94.2413 32.8987 94.7586 32.8987C95.276 32.8987 95.7373 33.0214 96.1426 33.2667C96.548 33.5121 96.8653 33.8534 97.0946 34.2907C97.324 34.7281 97.4386 35.2241 97.4386 35.7787ZM96.9266 35.7787C96.9266 35.3147 96.8333 34.9014 96.6466 34.5387C96.4653 34.1707 96.2093 33.8854 95.8786 33.6827C95.5533 33.4801 95.18 33.3787 94.7586 33.3787C94.3373 33.3787 93.9613 33.4801 93.6306 33.6827C93.3053 33.8854 93.0493 34.1707 92.8626 34.5387C92.6813 34.9014 92.5906 35.3147 92.5906 35.7787C92.5906 36.2427 92.6813 36.6587 92.8626 37.0267C93.0493 37.3894 93.3053 37.6721 93.6306 37.8747C93.9613 38.0774 94.3373 38.1787 94.7586 38.1787C95.18 38.1787 95.5533 38.0774 95.8786 37.8747C96.2093 37.6721 96.4653 37.3894 96.6466 37.0267C96.8333 36.6587 96.9266 36.2427 96.9266 35.7787Z" fill="white"/>
<path d="M100.146 46.608C100.146 47.1573 100.031 47.6506 99.802 48.088C99.5726 48.5253 99.2553 48.8693 98.85 49.12C98.4446 49.3653 97.9833 49.488 97.466 49.488C96.9486 49.488 96.4873 49.3653 96.082 49.12C95.6766 48.8693 95.3593 48.5253 95.13 48.088C94.9006 47.6506 94.786 47.1573 94.786 46.608C94.786 46.0533 94.9006 45.5573 95.13 45.12C95.3593 44.6826 95.6766 44.3413 96.082 44.096C96.4873 43.8506 96.9486 43.728 97.466 43.728C97.9833 43.728 98.4446 43.8506 98.85 44.096C99.2553 44.3413 99.5726 44.6826 99.802 45.12C100.031 45.5573 100.146 46.0533 100.146 46.608ZM99.634 46.608C99.634 46.144 99.5406 45.7306 99.354 45.368C99.1726 45 98.9166 44.7146 98.586 44.512C98.2606 44.3093 97.8873 44.208 97.466 44.208C97.0446 44.208 96.6686 44.3093 96.338 44.512C96.0126 44.7146 95.7566 45 95.57 45.368C95.3886 45.7306 95.298 46.144 95.298 46.608C95.298 47.072 95.3886 47.488 95.57 47.856C95.7566 48.2186 96.0126 48.5013 96.338 48.704C96.6686 48.9066 97.0446 49.008 97.466 49.008C97.8873 49.008 98.2606 48.9066 98.586 48.704C98.9166 48.5013 99.1726 48.2186 99.354 47.856C99.5406 47.488 99.634 47.072 99.634 46.608Z" fill="white"/>
<path d="M103.127 58.0282C103.129 58.0921 103.107 58.1464 103.061 58.1909C103.02 58.2405 102.965 58.2667 102.896 58.2695L97.7799 58.4711C97.7106 58.4738 97.651 58.4521 97.6012 58.406C97.5566 58.3598 97.533 58.302 97.5303 58.2327C97.5273 58.1581 97.5462 58.096 97.587 58.0463C97.6331 57.9965 97.6907 57.9702 97.76 57.9674L102.157 57.7942L99.2368 56.0278C99.1654 55.9772 99.131 55.9172 99.1336 55.8477L99.133 55.8317C99.1305 55.7678 99.1601 55.7079 99.222 55.6521L102.01 53.6608L97.5972 53.8347C97.5279 53.8374 97.4683 53.8157 97.4185 53.7696C97.3741 53.7287 97.3506 53.6736 97.3479 53.6043C97.3452 53.535 97.3643 53.4782 97.4052 53.4339C97.4515 53.3894 97.5093 53.3657 97.5786 53.363L102.695 53.1614C102.759 53.1589 102.815 53.178 102.865 53.2188C102.915 53.2648 102.941 53.3225 102.944 53.3918C102.945 53.4291 102.936 53.4695 102.917 53.513C102.902 53.5562 102.88 53.5891 102.848 53.6117L99.7894 55.8299L103.014 57.8165C103.096 57.8719 103.134 57.9425 103.127 58.0282Z" fill="white"/>
</svg>
