<svg width="100%" height="100%" viewBox="0 0 88 79" fill="none" xmlns="http://www.w3.org/2000/svg">
<g filter="url(#filter0_d)">
<path d="M52.7673 18.2719C52.8288 21.4147 52.3596 24.2979 51.4637 26.8508C51.164 27.6507 51.4214 28.718 52.1484 29.6204L57.4332 35.1822C54.0068 41.3509 47.4 46.1153 39.727 47.4123L35.2426 41.1235C34.4891 40.2133 33.4544 39.702 32.5349 39.7076C29.6199 39.7795 26.4844 39.3285 23.2338 38.3606C21.8067 37.9356 20.6399 38.7313 20.6669 40.1111L20.8397 48.9519C20.8667 50.3317 21.5334 52.1814 23.5155 52.7716C48.0672 60.0822 68.0834 46.4061 67.6199 22.6945C67.5844 20.8803 65.9054 19.6691 64.4519 19.2363L55.3342 16.5214C53.9071 16.0964 52.7403 16.8921 52.7673 18.2719Z" fill="#F58300"/>
</g>
<defs>
<filter id="filter0_d" x="0.666443" y="0.406799" width="86.9613" height="78.3369" filterUnits="userSpaceOnUse" color-interpolation-filters="sRGB">
<feFlood flood-opacity="0" result="BackgroundImageFix"/>
<feColorMatrix in="SourceAlpha" type="matrix" values="0 0 0 0 0 0 0 0 0 0 0 0 0 0 0 0 0 0 127 0" result="hardAlpha"/>
<feOffset dy="4"/>
<feGaussianBlur stdDeviation="10"/>
<feComposite in2="hardAlpha" operator="out"/>
<feColorMatrix type="matrix" values="0 0 0 0 0.00784314 0 0 0 0 0.219608 0 0 0 0 0.282353 0 0 0 1 0"/>
<feBlend mode="normal" in2="BackgroundImageFix" result="effect1_dropShadow"/>
<feBlend mode="normal" in="SourceGraphic" in2="effect1_dropShadow" result="shape"/>
</filter>
</defs>
</svg>
