<svg width="402" height="403" viewBox="0 0 402 403" fill="none" xmlns="http://www.w3.org/2000/svg">
<g filter="url(#filter0_f)">
<path d="M345.628 158.238C357.476 147.5 349.338 127.791 333.41 128.614L288.433 130.918C278.388 131.433 270.127 123.122 270.64 113.062L272.936 67.9261C273.755 51.9414 254.096 43.7743 243.416 55.6445L213.22 89.1978C206.496 96.6862 194.79 96.6862 188.046 89.1978L157.87 55.665C147.17 43.7743 127.531 51.9414 128.351 67.9467L130.647 113.082C131.159 123.163 122.877 131.453 112.853 130.939L67.8765 128.635C51.9482 127.812 43.8098 147.52 55.6381 158.259L89.0732 188.541C96.5351 195.289 96.5351 207.036 89.0732 213.804L55.6381 244.087C43.7893 254.825 51.9277 274.534 67.8765 273.711L112.853 271.407C122.898 270.892 131.159 279.203 130.647 289.263L128.351 334.399C127.531 350.384 147.19 358.551 157.87 346.681L188.046 313.127C194.79 305.639 206.496 305.639 213.22 313.127L243.395 346.681C254.096 358.571 273.735 350.404 272.915 334.399L270.619 289.263C270.107 279.183 278.388 270.892 288.413 271.407L333.389 273.711C349.318 274.534 357.456 254.805 345.607 244.087L312.172 213.804C304.71 207.056 304.71 195.31 312.172 188.541L345.628 158.238Z" fill="#0081A7"/>
</g>
<defs>
<filter id="filter0_f" x="0" y="0" width="401.267" height="402.339" filterUnits="userSpaceOnUse" color-interpolation-filters="sRGB">
<feFlood flood-opacity="0" result="BackgroundImageFix"/>
<feBlend mode="normal" in="SourceGraphic" in2="BackgroundImageFix" result="shape"/>
<feGaussianBlur stdDeviation="25" result="effect1_foregroundBlur"/>
</filter>
</defs>
</svg>
